PathFileType	4	(X/Y/Z)	37_2_53_p0_0-672.trc
DataRate	CameraRate	NumFrames	NumMarkers	Units	OrigDataRate	OrigDataStartFrame	OrigNumFrames
60.0	60.0	7	27	m	60.0	588	673
Frame#	Time	RHip			RKnee			RAnkle			RBigToe			RSmallToe			RHeel			LHip			LKnee			LAnkle			LBigToe			LSmallToe			LHeel			Neck			Head			Nose			RShoulder			RElbow			RWrist			RThumb			RIndex			RPinky			LShoulder			LElbow			LWrist			LThumb			LIndex			LPinky			
		X1	Y1	Z1	X2	Y2	Z2	X3	Y3	Z3	X4	Y4	Z4	X5	Y5	Z5	X6	Y6	Z6	X7	Y7	Z7	X8	Y8	Z8	X9	Y9	Z9	X10	Y10	Z10	X11	Y11	Z11	X12	Y12	Z12	X13	Y13	Z13	X14	Y14	Z14	X15	Y15	Z15	X16	Y16	Z16	X17	Y17	Z17	X18	Y18	Z18	X19	Y19	Z19	X20	Y20	Z20	X21	Y21	Z21	X22	Y22	Z22	X23	Y23	Z23	X24	Y24	Z24	X25	Y25	Z25	X26	Y26	Z26	X27	Y27	Z27	
588	9.8	0.38292413260899594	0.7309192575383566	0.47852763114914376	0.3495003080990554	0.8555464640746328	0.9333272962531373	0.3789613477137654	1.0538274184510905	1.37105653520248	0.3282573015709247	0.8838941369018062	1.4333224836574858	0.38994742894420237	0.8812655352190373	1.4337279964724874	0.3605215960794406	1.1626387948638877	1.4184921659939564	0.17598772699632825	0.7633656560785295	0.47115848857636733	0.18654105958518033	0.9012949145592483	0.9397066040520222	0.1779080163804286	1.0713494436850326	1.355643699840623	0.17529740132383817	0.9012997586021477	1.4196445194484963	0.11684586211465285	0.9514488465668404	1.4188442194771682	0.19686393694003682	1.1551236175928306	1.416321786619473	0.2754845105379914	0.5551361084878674	-0.05057072328232585	0.2601750136922457	0.4307647165110357	-0.25443417300667753	0.25095285014125757	0.4200349284909117	-0.1288268410041229	0.42576871134486716	0.5758911137565832	0.05813555304091681	0.4888374179891008	0.6533043919650029	0.3172560321034868	0.46353330043222274	0.6115194868381608	0.5714525479065815	0.4209543180522087	0.6879121200897008	0.6745511521981418	0.4372762416969896	0.6843899075963519	0.6933376024094975	0.461645582770537	0.7157034384841647	0.6938495439416935	0.11357165351878094	0.6238776950997754	0.030980009988743822	0.049474198640209396	0.7222704203209727	0.2921739017162174	0.07525653462108386	0.6855361465627811	0.5375339520705001	0.14031557751926246	0.641085102213227	0.624423696359402	0.13020836383583015	0.663738248580479	0.6534125911010705	0.09249708028340194	0.7354952705827797	0.6556086990093805
589	9.816666666666666	0.38301351248110493	0.7311773700623774	0.4784563764231944	0.34868949169465807	0.8563080727538699	0.9371584169669317	0.3789201162552027	1.0548269528320073	1.3669219113847355	0.328283989034134	0.8837645438208958	1.4332138257466223	0.38994231687725345	0.8809872737121538	1.4335662633801152	0.3605560649295379	1.162841159042332	1.4184450852759918	0.17620531322034005	0.7633645296824102	0.4710832151811604	0.18276699998701643	0.9189010022347109	0.945922568729842	0.1780380939289287	1.071369784665427	1.3558197280726367	0.17521911469569615	0.9010490991339307	1.4195875292011555	0.11913016227837465	0.9362664299570879	1.4177325296747187	0.19776755075083519	1.157699710812454	1.4205811648774496	0.2753910177665514	0.5555837106448617	-0.04749690128966556	0.2600207824019673	0.4302091210434461	-0.2542666168997956	0.2510369012106424	0.41968308060275195	-0.12864642649596533	0.4257109255100625	0.5753183747382856	0.05816266429168403	0.48850629262492096	0.6538412280212734	0.32059333996109474	0.4637590473120794	0.6118986907878499	0.5715185109934638	0.4211217388451947	0.687618693152721	0.6781199567571204	0.441336156937064	0.684086133174907	0.6934549960498603	0.4615758878098127	0.7171050722180383	0.6975895501876518	0.11359459973529294	0.6238767677450289	0.031038104224204718	0.05794917664427739	0.7359737385856646	0.29146089544852877	0.08660238549631297	0.6871396980761417	0.5413026715560357	0.1373169713525516	0.6562427674281304	0.6289997114457926	0.12528141464356607	0.699698412745963	0.6677516864170322	0.0925313471384738	0.7363494847250344	0.6562645546241603
590	9.833333333333334	0.3837501296695896	0.7336600569916922	0.48228169957033534	0.34956031514126873	0.8552140445920106	0.9330719451398586	0.3789408570632529	1.0548548206175128	1.3668730885527935	0.3283214502825843	0.8837708108976793	1.4331303292693411	0.3956560753125147	0.8952181003674025	1.4378773654907697	0.36047514248019497	1.1631017936338064	1.4142982496545173	0.17618483902123516	0.763769444135781	0.47093358452142203	0.18680791373081176	0.900806596769321	0.9396528815764933	0.17812038839439612	1.071265912705079	1.3557730976237006	0.1752813680012333	0.901495095204875	1.4194422785448924	0.12013756091172802	0.9345392367826297	1.413739662338243	0.19775331270765312	1.1574717101752228	1.4204262170186797	0.27961820106077084	0.5557828430028809	-0.04745857257032099	0.2600759284510664	0.4301195583515019	-0.25427462608219037	0.255398107676359	0.42007744087572446	-0.12860166476262325	0.4271774110245994	0.5616736802241472	0.059957340304554456	0.48812032749498413	0.6546583407063536	0.32389633805408896	0.46369124332559314	0.611985268983412	0.56771364747622	0.4211685426202447	0.6874489877476946	0.6782253315722094	0.44345363835819984	0.6693398974341088	0.6925439149145706	0.4610574020209014	0.7175963508335526	0.6973637953350394	0.11368703500854432	0.6239856826528065	0.031030068451729707	0.06259241040220785	0.7367272547213888	0.29128003897644533	0.08680607876926874	0.6873121591540898	0.541275143823266	0.1415913190275808	0.6568815224901567	0.6291158117164652	0.12369520150762572	0.7028939019530449	0.6789820983923966	0.09146958710366794	0.7389902845255534	0.6614720347940393
591	9.85	0.3855861395728213	0.718225458938411	0.4821785562472814	0.34884164359882225	0.8567837924586007	0.9376438624000968	0.3781552217538959	1.0555692337922669	1.3756339803212079	0.32832834441800973	0.8834421729180645	1.4329926800117778	0.39611850178203317	0.8745330037376761	1.42772874612685	0.36674007474702497	1.1786518372611967	1.4226577743333586	0.17653011537486532	0.76322256245331	0.4710652318157095	0.18597095866480517	0.9026372236246463	0.9434898868102142	0.17693026189828484	1.0723737671907767	1.3602158754070852	0.17521615720973654	0.9012565015637314	1.4192556124505413	0.1192180551620725	0.9350313145451922	1.4168190198321746	0.19646948416594395	1.1545126248519229	1.4162347003953524	0.28002587400396733	0.5576912460566578	-0.04397391629250822	0.26023895539796454	0.43039883989530603	-0.2542867398324502	0.25552471424471823	0.4202474888537331	-0.12855972564466203	0.4271703747367437	0.5613704316368103	0.060001083481762814	0.48630639043036317	0.6667162100141555	0.3158304129968274	0.4637252968342352	0.612194352625592	0.5677396229192463	0.4211056574858785	0.6873972517937471	0.6782149479248453	0.443407565003516	0.6691467364022622	0.6925961766960259	0.46102153028823994	0.7176153039622738	0.6975093174016105	0.11375237480623321	0.6239008613092883	0.031075726095306844	0.06798681881777954	0.7369098672586026	0.28783539844990236	0.09218003974835025	0.686255565820389	0.5344448888637077	0.13726637116206883	0.6557449685701675	0.6288690658787167	0.12431107087700853	0.6971928089823152	0.6701845609859565	0.09285169457870716	0.7355978748899079	0.6555175925957831
592	9.866666666666667	0.37949083302475256	0.702900668583749	0.4781346561513891	0.34946459932219404	0.8552106028734032	0.933088182294369	0.37812858451676873	1.0556106190491503	1.3756845034726823	0.32842399930151134	0.8835120512068354	1.4329050266029968	0.39626238901061905	0.8744580385653256	1.4276183815251127	0.3605492544355128	1.1627445432347534	1.4183974525163825	0.17665724470207167	0.7633558170388207	0.4708355938878479	0.18596096469107062	0.9024878345515708	0.9434131066585186	0.17684024078032087	1.072399594441278	1.3602701989297177	0.17523352922587587	0.9011352657782052	1.4192712643944232	0.11915163872100064	0.9352496516078584	1.4170115443702347	0.1973239473627442	1.157046188416002	1.4204066468015568	0.2800280806817305	0.5576993704886701	-0.0439459590969865	0.2602581891131136	0.4304560106504369	-0.2542343094399961	0.2555415463117782	0.42027471669510597	-0.12848778832979865	0.4271109267035802	0.5613322860779975	0.05999172109335549	0.48482508971945926	0.6820455223546645	0.31509598974968983	0.4635508925364755	0.6117123068454209	0.5675696031264242	0.4211230057908389	0.687026833929212	0.6782406041045517	0.4391166157652636	0.6598343351849275	0.6959218479306908	0.46119765669809004	0.7179125476607398	0.6974982239067339	0.1138304075231174	0.6238623089058003	0.030956081859862556	0.07150574306034425	0.7227060700924726	0.2884668789196244	0.09207568354967258	0.6863854273259924	0.5343573177600218	0.14419878189411833	0.6435602051083421	0.6283313679259249	0.12767667681907577	0.6822088039027973	0.6618894272255118	0.09285573141088489	0.7358266834802649	0.6555456698354339
593	9.883333333333333	0.37967090857033936	0.7029562039917221	0.4780575212722021	0.3488521900432494	0.8564949847574131	0.9372810412870758	0.37811733612357734	1.0556090766001942	1.3757098515592279	0.32836123191362093	0.8833528738784324	1.4329431118481606	0.39141706101692075	0.8738821215892095	1.427386286131032	0.36678234355505696	1.179011411539671	1.4229776937581389	0.1767454145963531	0.7634796014545888	0.47069818620352916	0.18608726983690718	0.9025361829830296	0.9435564410768011	0.17800954071255268	1.0711744753716865	1.3557957599343728	0.1752748116847776	0.901201442097606	1.4192481646669999	0.1191659426326247	0.9355222660900604	1.417175562686385	0.19727882112767234	1.1574654837567733	1.4208036047742851	0.2800147309904449	0.5576969965637675	-0.04403675597576878	0.26020982731573356	0.4302027723489622	-0.2542144470339773	0.2555971917107933	0.4198467657357567	-0.1283878301527591	0.42705372327251273	0.56154578631327	0.059957615457753376	0.48480985944458765	0.6825962804386909	0.31524738877545	0.4636337014777144	0.611431258156429	0.5712296414243861	0.4251440787925654	0.6871888253531626	0.6782478670544441	0.4505037022919081	0.6560525071704085	0.6956425969381119	0.4620500978008929	0.7176793401764046	0.6941342988503804	0.11776870631347582	0.6364148451023091	0.029182377229525856	0.07703186825318403	0.7228120485417735	0.2851131754915162	0.09198235886197423	0.6861458800027903	0.5341145951759563	0.14032075630240182	0.6413681459890721	0.6247560814314199	0.12702342758775656	0.6793737811624342	0.6576359986789184	0.09241971517217003	0.7354529905240651	0.6558807392644751
594	9.9	0.37945144017332155	0.7030069715058471	0.4739732123920032	0.3495210977847217	0.8550992583668212	0.9330894266131783	0.37812142731422405	1.0557247334030282	1.3757165471876496	0.32834619327123643	0.8834558952839893	1.4330734987196085	0.3961276147573997	0.8746767000334885	1.4278567600332142	0.3667418278777799	1.179195785238499	1.4230361706360521	0.1765144265253681	0.7633541245768374	0.47068795802533764	0.18682144174292475	0.9056405052806594	0.9488238689125259	0.178042463191944	1.0716240723302992	1.3560411346877768	0.17527465857629582	0.9010953839833498	1.4193644706643476	0.11909501380138561	0.9362793247717768	1.417704128418723	0.19714047209626653	1.1574825455186761	1.4208349615533238	0.28006939619024784	0.5576344393980822	-0.04409502073189616	0.2601801502449463	0.42972349703053647	-0.25419857587503103	0.25785332726913573	0.4080983045054441	-0.12591744592656828	0.42558162185190845	0.5751991856031298	0.05821704899889402	0.47863434144912176	0.6851679030758251	0.3163448614444654	0.458200605479786	0.5999118045543427	0.5707565180503567	0.42710976227416575	0.6727011738828705	0.6738725706261743	0.4506129490950569	0.6559992315000234	0.6955648232776612	0.46228794366474485	0.7181232000678186	0.6942606456051047	0.11772415053109084	0.6364143929452548	0.029160837155002176	0.0776226183904923	0.725219507462592	0.2850080108180081	0.08767708017412039	0.6853594639183371	0.5339179304661459	0.1404460018513916	0.6417699223285747	0.6248809910916449	0.12788271357565129	0.6823313325274705	0.661448264303303	0.08896039471536937	0.7331158404278791	0.6516808142625093
